<?xml version="1.0" standalone="no"?>
<!DOCTYPE svg PUBLIC "-//W3C//DTD SVG 20010904//EN"
 "http://www.w3.org/TR/2001/REC-SVG-20010904/DTD/svg10.dtd">
<svg version="1.0" xmlns="http://www.w3.org/2000/svg"
 width="885.000000pt" height="541.000000pt" viewBox="0 0 885.000000 541.000000"
 preserveAspectRatio="xMidYMid meet">

<g transform="translate(0.000000,541.000000) scale(0.100000,-0.100000)"
fill="#000000" stroke="none">
<path d="M4168 4624 c-170 -41 -313 -166 -386 -336 -25 -58 -27 -73 -27 -203
0 -130 2 -145 28 -205 34 -82 100 -170 169 -227 29 -24 52 -48 50 -54 -1 -6
-30 -57 -64 -115 -33 -58 -59 -106 -57 -108 2 -2 92 30 199 71 125 48 220 78
265 84 247 34 423 183 490 413 22 75 17 247 -9 321 -95 268 -384 426 -658 359z
m387 -351 c0 -27 -24 -58 -162 -210 -201 -222 -216 -237 -240 -229 -26 8 -115
171 -111 205 2 22 8 26 33 26 25 0 35 -8 61 -53 18 -29 34 -54 37 -55 3 -1 78
78 167 176 141 154 166 178 189 175 22 -3 26 -8 26 -35z"/>
<path d="M2795 4220 c-96 -15 -212 -78 -282 -154 -151 -161 -178 -331 -96
-600 46 -149 64 -176 120 -176 52 0 67 13 103 93 43 95 60 169 60 258 0 69 3
81 26 108 21 25 33 31 65 31 56 0 89 -34 89 -92 0 -55 22 -88 59 -88 46 0 55
22 61 139 4 90 8 111 28 139 43 59 69 66 247 70 90 1 170 8 182 14 31 15 46
60 40 114 -5 52 -29 89 -77 122 -31 21 -43 22 -210 22 -97 0 -217 2 -266 4
-49 3 -116 1 -149 -4z"/>
<path d="M5984 3746 c-94 -30 -177 -116 -203 -211 -6 -22 -11 -97 -11 -167 l0
-127 37 -3 c33 -3 38 -7 44 -37 4 -18 16 -45 26 -60 24 -33 98 -71 138 -71 74
0 165 78 165 141 l0 28 87 3 88 3 26 120 c14 66 28 127 31 135 4 8 7 -211 7
-487 l1 -503 276 0 275 0 -3 503 c-4 463 -5 506 -23 552 -26 70 -104 146 -178
173 -55 21 -73 22 -400 21 -249 0 -353 -4 -383 -13z m617 -495 c31 -32 35 -50
17 -84 -17 -33 -39 -46 -75 -47 l-33 0 0 80 0 80 31 0 c20 0 40 -10 60 -29z
m-446 -38 c-25 -101 -149 -145 -230 -81 -25 20 -55 73 -55 98 0 6 52 10 146
10 l146 0 -7 -27z"/>
<path d="M3214 3727 c-3 -8 -4 -41 -2 -73 2 -44 7 -59 18 -59 12 0 15 14 15
69 0 47 -4 71 -12 73 -7 3 -15 -2 -19 -10z"/>
<path d="M3396 3724 c-9 -23 -7 -107 3 -123 18 -28 31 1 31 70 0 52 -3 69 -14
69 -8 0 -17 -7 -20 -16z"/>
<path d="M4943 3575 c-232 -63 -387 -264 -387 -505 0 -200 105 -374 279 -463
69 -35 144 -57 196 -57 20 0 123 -33 234 -75 109 -42 200 -74 202 -72 2 2 -24
52 -58 111 l-61 107 23 16 c59 39 138 133 172 204 146 297 -18 650 -340 734
-71 19 -191 18 -260 0z m179 -185 c44 -13 93 -52 113 -91 20 -39 18 -126 -4
-174 -10 -22 -41 -61 -69 -87 -47 -44 -51 -52 -54 -99 -3 -59 -24 -82 -55 -63
-14 9 -19 27 -21 81 l-3 71 56 48 c31 26 63 60 71 76 45 86 -12 181 -98 163
-33 -8 -68 -49 -68 -80 0 -29 -22 -47 -52 -43 -18 2 -24 10 -26 37 -6 65 41
130 114 156 48 17 50 17 96 5z m-22 -595 c6 -8 9 -23 5 -35 -5 -17 -13 -20
-38 -18 -32 3 -45 23 -33 54 7 18 50 18 66 -1z"/>
<path d="M2431 2761 c-43 -72 -100 -130 -163 -162 -20 -10 -121 -52 -225 -93
-315 -123 -403 -175 -545 -324 -131 -137 -220 -307 -259 -497 -17 -82 -19
-143 -19 -667 l0 -576 108 -55 c231 -118 482 -198 747 -239 109 -16 187 -21
350 -21 215 -1 298 7 490 46 l110 22 -332 3 -333 2 0 25 c0 20 -5 25 -25 25
l-25 0 0 219 0 218 -92 7 c-105 8 -192 25 -297 56 l-71 21 0 177 0 177 152 85
c180 100 198 108 261 109 l47 1 0 215 0 216 390 -1 390 -1 0 -95 c0 -111 9
-134 50 -134 41 0 50 23 50 135 l0 96 73 -3 c66 -3 72 -5 75 -25 3 -17 10 -23
28 -23 19 0 24 -5 24 -25 0 -21 5 -25 30 -25 l30 0 0 -190 0 -190 -30 0 -30 0
0 -475 c0 -261 1 -475 3 -475 2 0 41 13 88 29 256 86 587 123 867 97 l82 -8 0
554 c0 555 -5 666 -37 783 -78 287 -295 542 -565 665 -36 16 -225 75 -419 130
-280 80 -360 107 -389 130 l-36 28 -59 -49 c-33 -27 -65 -49 -71 -49 -6 0 -51
22 -100 48 -49 27 -132 72 -185 100 l-97 52 -41 -69z m729 -1111 c0 -93 -1
-100 -20 -100 -19 0 -20 7 -20 100 0 93 1 100 20 100 19 0 20 -7 20 -100z"/>
</g>
</svg>
